<svg width="200%" height="300%" xmlns="http://www.w3.org/2000/svg" xmlns:dc="http://purl.org/dc/elements/1.1/" xmlns:cc="http://creativecommons.org/ns#" xmlns:rdf="http://www.w3.org/1999/02/22-rdf-syntax-ns#" xmlns:svg="http://www.w3.org/2000/svg">
  <style>
    text {
      font-family: sans-serif;
      font-size: 10px;
    }
    .node {
      stroke-linecap: round;
    }
    .link {
      fill: none;
    }
  </style>

  <path class="link" d="   M8 46   L118 46   A16 16 90 0 1 134 62   L134 78   A16 16 90 0 0 150 94   L148 94   M8 46   L118 46   A16 16 90 0 1 134 62   L134 78   A16 16 90 0 0 150 94   L148 94   M8 46   L118 46   A16 16 90 0 1 134 62   L134 100   A16 16 90 0 0 150 116   L148 116   M8 46   L118 46   A16 16 90 0 1 134 62   L134 100   A16 16 90 0 0 150 116   L148 116   M8 46   L118 46   A16 16 90 0 1 134 62   L134 122   A16 16 90 0 0 150 138   L148 138   M8 46   L118 46   A16 16 90 0 1 134 62   L134 122   A16 16 90 0 0 150 138   L148 138   M8 46   L118 46   A16 16 90 0 1 134 62   L134 144   A16 16 90 0 0 150 160   L148 160   M8 46   L118 46   A16 16 90 0 1 134 62   L134 144   A16 16 90 0 0 150 160   L148 160   M8 46   L118 46   A16 16 90 0 1 134 62   L134 166   A16 16 90 0 0 150 182   L148 182   M8 46   L118 46   A16 16 90 0 1 134 62   L134 166   A16 16 90 0 0 150 182   L148 182   M8 46   L118 46   A16 16 90 0 1 134 62   L134 188   A16 16 90 0 0 150 204   L148 204   M8 46   L118 46   A16 16 90 0 1 134 62   L134 188   A16 16 90 0 0 150 204   L148 204" stroke="white" stroke-width="5"/><path class="link" d="   M8 46   L118 46   A16 16 90 0 1 134 62   L134 78   A16 16 90 0 0 150 94   L148 94   M8 46   L118 46   A16 16 90 0 1 134 62   L134 78   A16 16 90 0 0 150 94   L148 94   M8 46   L118 46   A16 16 90 0 1 134 62   L134 100   A16 16 90 0 0 150 116   L148 116   M8 46   L118 46   A16 16 90 0 1 134 62   L134 100   A16 16 90 0 0 150 116   L148 116   M8 46   L118 46   A16 16 90 0 1 134 62   L134 122   A16 16 90 0 0 150 138   L148 138   M8 46   L118 46   A16 16 90 0 1 134 62   L134 122   A16 16 90 0 0 150 138   L148 138   M8 46   L118 46   A16 16 90 0 1 134 62   L134 144   A16 16 90 0 0 150 160   L148 160   M8 46   L118 46   A16 16 90 0 1 134 62   L134 144   A16 16 90 0 0 150 160   L148 160   M8 46   L118 46   A16 16 90 0 1 134 62   L134 166   A16 16 90 0 0 150 182   L148 182   M8 46   L118 46   A16 16 90 0 1 134 62   L134 166   A16 16 90 0 0 150 182   L148 182   M8 46   L118 46   A16 16 90 0 1 134 62   L134 188   A16 16 90 0 0 150 204   L148 204   M8 46   L118 46   A16 16 90 0 1 134 62   L134 188   A16 16 90 0 0 150 204   L148 204" stroke="#1b9e77" stroke-width="2"/><path class="link" d="   M8 50   L104 50   A16 16 90 0 1 120 66   L120 212   A16 16 90 0 0 136 228   L148 228" stroke="white" stroke-width="5"/><path class="link" d="   M8 50   L104 50   A16 16 90 0 1 120 66   L120 212   A16 16 90 0 0 136 228   L148 228" stroke="#d95f02" stroke-width="2"/><path class="link" d="   M8 72   L90 72   A16 16 90 0 1 106 88   L106 236   A16 16 90 0 0 122 252   L148 252   M8 72   L90 72   A16 16 90 0 1 106 88   L106 236   A16 16 90 0 0 122 252   L148 252   M8 72   L90 72   A16 16 90 0 1 106 88   L106 236   A16 16 90 0 0 122 252   L148 252" stroke="white" stroke-width="5"/><path class="link" d="   M8 72   L90 72   A16 16 90 0 1 106 88   L106 236   A16 16 90 0 0 122 252   L148 252   M8 72   L90 72   A16 16 90 0 1 106 88   L106 236   A16 16 90 0 0 122 252   L148 252   M8 72   L90 72   A16 16 90 0 1 106 88   L106 236   A16 16 90 0 0 122 252   L148 252" stroke="#7570b3" stroke-width="2"/><path class="link" d="   M8 98   L76 98   A16 16 90 0 1 92 114   L92 258   A16 16 90 0 0 108 274   L148 274   M8 98   L76 98   A16 16 90 0 1 92 114   L92 258   A16 16 90 0 0 108 274   L148 274" stroke="white" stroke-width="5"/><path class="link" d="   M8 98   L76 98   A16 16 90 0 1 92 114   L92 258   A16 16 90 0 0 108 274   L148 274   M8 98   L76 98   A16 16 90 0 1 92 114   L92 258   A16 16 90 0 0 108 274   L148 274" stroke="#e7298a" stroke-width="2"/><path class="link" d="   M8 76   L62 76   A16 16 90 0 1 78 92   L78 280   A16 16 90 0 0 94 296   L148 296   M8 76   L62 76   A16 16 90 0 1 78 92   L78 280   A16 16 90 0 0 94 296   L148 296   M8 76   L62 76   A16 16 90 0 1 78 92   L78 302   A16 16 90 0 0 94 318   L148 318   M8 76   L62 76   A16 16 90 0 1 78 92   L78 302   A16 16 90 0 0 94 318   L148 318" stroke="white" stroke-width="5"/><path class="link" d="   M8 76   L62 76   A16 16 90 0 1 78 92   L78 280   A16 16 90 0 0 94 296   L148 296   M8 76   L62 76   A16 16 90 0 1 78 92   L78 280   A16 16 90 0 0 94 296   L148 296   M8 76   L62 76   A16 16 90 0 1 78 92   L78 302   A16 16 90 0 0 94 318   L148 318   M8 76   L62 76   A16 16 90 0 1 78 92   L78 302   A16 16 90 0 0 94 318   L148 318" stroke="#66a61e" stroke-width="2"/><path class="link" d="   M148 204   L230 204   A16 16 90 0 1 246 220   L246 236   A16 16 90 0 0 262 252   L260 252   M148 204   L230 204   A16 16 90 0 1 246 220   L246 236   A16 16 90 0 0 262 252   L260 252" stroke="white" stroke-width="5"/><path class="link" d="   M148 204   L230 204   A16 16 90 0 1 246 220   L246 236   A16 16 90 0 0 262 252   L260 252   M148 204   L230 204   A16 16 90 0 1 246 220   L246 236   A16 16 90 0 0 262 252   L260 252" stroke="#e6ab02" stroke-width="2"/><path class="link" d="   M148 226   L216 226   A16 16 90 0 1 232 242   L232 258   A16 16 90 0 0 248 274   L260 274   M148 226   L216 226   A16 16 90 0 1 232 242   L232 258   A16 16 90 0 0 248 274   L260 274   M148 226   L216 226   A16 16 90 0 1 232 242   L232 280   A16 16 90 0 0 248 296   L260 296   M148 226   L216 226   A16 16 90 0 1 232 242   L232 280   A16 16 90 0 0 248 296   L260 296   M148 226   L216 226   A16 16 90 0 1 232 242   L232 332   A16 16 90 0 0 248 348   L260 348   M148 226   L216 226   A16 16 90 0 1 232 242   L232 332   A16 16 90 0 0 248 348   L260 348   M148 226   L216 226   A16 16 90 0 1 232 242   L232 384   A16 16 90 0 0 248 400   L260 400   M148 226   L216 226   A16 16 90 0 1 232 242   L232 384   A16 16 90 0 0 248 400   L260 400   M148 226   L216 226   A16 16 90 0 1 232 242   L232 436   A16 16 90 0 0 248 452   L260 452   M148 226   L216 226   A16 16 90 0 1 232 242   L232 436   A16 16 90 0 0 248 452   L260 452   M148 226   L216 226   A16 16 90 0 1 232 242   L232 488   A16 16 90 0 0 248 504   L260 504   M148 226   L216 226   A16 16 90 0 1 232 242   L232 488   A16 16 90 0 0 248 504   L260 504   M148 226   L216 226   A16 16 90 0 1 232 242   L232 540   A16 16 90 0 0 248 556   L260 556   M148 226   L216 226   A16 16 90 0 1 232 242   L232 540   A16 16 90 0 0 248 556   L260 556   M148 226   L216 226   A16 16 90 0 1 232 242   L232 592   A16 16 90 0 0 248 608   L260 608   M148 226   L216 226   A16 16 90 0 1 232 242   L232 592   A16 16 90 0 0 248 608   L260 608   M148 226   L216 226   A16 16 90 0 1 232 242   L232 614   A16 16 90 0 0 248 630   L260 630   M148 226   L216 226   A16 16 90 0 1 232 242   L232 614   A16 16 90 0 0 248 630   L260 630   M148 226   L216 226   A16 16 90 0 1 232 242   L232 636   A16 16 90 0 0 248 652   L260 652   M148 226   L216 226   A16 16 90 0 1 232 242   L232 636   A16 16 90 0 0 248 652   L260 652   M148 226   L216 226   A16 16 90 0 1 232 242   L232 658   A16 16 90 0 0 248 674   L260 674   M148 226   L216 226   A16 16 90 0 1 232 242   L232 658   A16 16 90 0 0 248 674   L260 674   M148 226   L216 226   A16 16 90 0 1 232 242   L232 680   A16 16 90 0 0 248 696   L260 696   M148 226   L216 226   A16 16 90 0 1 232 242   L232 680   A16 16 90 0 0 248 696   L260 696" stroke="white" stroke-width="5"/><path class="link" d="   M148 226   L216 226   A16 16 90 0 1 232 242   L232 258   A16 16 90 0 0 248 274   L260 274   M148 226   L216 226   A16 16 90 0 1 232 242   L232 258   A16 16 90 0 0 248 274   L260 274   M148 226   L216 226   A16 16 90 0 1 232 242   L232 280   A16 16 90 0 0 248 296   L260 296   M148 226   L216 226   A16 16 90 0 1 232 242   L232 280   A16 16 90 0 0 248 296   L260 296   M148 226   L216 226   A16 16 90 0 1 232 242   L232 332   A16 16 90 0 0 248 348   L260 348   M148 226   L216 226   A16 16 90 0 1 232 242   L232 332   A16 16 90 0 0 248 348   L260 348   M148 226   L216 226   A16 16 90 0 1 232 242   L232 384   A16 16 90 0 0 248 400   L260 400   M148 226   L216 226   A16 16 90 0 1 232 242   L232 384   A16 16 90 0 0 248 400   L260 400   M148 226   L216 226   A16 16 90 0 1 232 242   L232 436   A16 16 90 0 0 248 452   L260 452   M148 226   L216 226   A16 16 90 0 1 232 242   L232 436   A16 16 90 0 0 248 452   L260 452   M148 226   L216 226   A16 16 90 0 1 232 242   L232 488   A16 16 90 0 0 248 504   L260 504   M148 226   L216 226   A16 16 90 0 1 232 242   L232 488   A16 16 90 0 0 248 504   L260 504   M148 226   L216 226   A16 16 90 0 1 232 242   L232 540   A16 16 90 0 0 248 556   L260 556   M148 226   L216 226   A16 16 90 0 1 232 242   L232 540   A16 16 90 0 0 248 556   L260 556   M148 226   L216 226   A16 16 90 0 1 232 242   L232 592   A16 16 90 0 0 248 608   L260 608   M148 226   L216 226   A16 16 90 0 1 232 242   L232 592   A16 16 90 0 0 248 608   L260 608   M148 226   L216 226   A16 16 90 0 1 232 242   L232 614   A16 16 90 0 0 248 630   L260 630   M148 226   L216 226   A16 16 90 0 1 232 242   L232 614   A16 16 90 0 0 248 630   L260 630   M148 226   L216 226   A16 16 90 0 1 232 242   L232 636   A16 16 90 0 0 248 652   L260 652   M148 226   L216 226   A16 16 90 0 1 232 242   L232 636   A16 16 90 0 0 248 652   L260 652   M148 226   L216 226   A16 16 90 0 1 232 242   L232 658   A16 16 90 0 0 248 674   L260 674   M148 226   L216 226   A16 16 90 0 1 232 242   L232 658   A16 16 90 0 0 248 674   L260 674   M148 226   L216 226   A16 16 90 0 1 232 242   L232 680   A16 16 90 0 0 248 696   L260 696   M148 226   L216 226   A16 16 90 0 1 232 242   L232 680   A16 16 90 0 0 248 696   L260 696" stroke="#a6761d" stroke-width="2"/><path class="link" d="   M148 274   L202 274   A16 16 90 0 1 218 290   L218 306   A16 16 90 0 0 234 322   L260 322   M148 274   L202 274   A16 16 90 0 1 218 290   L218 306   A16 16 90 0 0 234 322   L260 322   M148 274   L202 274   A16 16 90 0 1 218 290   L218 306   A16 16 90 0 0 234 322   L260 322   M148 274   L202 274   A16 16 90 0 1 218 290   L218 306   A16 16 90 0 0 234 322   L260 322   M148 274   L202 274   A16 16 90 0 1 218 290   L218 358   A16 16 90 0 0 234 374   L260 374   M148 274   L202 274   A16 16 90 0 1 218 290   L218 358   A16 16 90 0 0 234 374   L260 374   M148 274   L202 274   A16 16 90 0 1 218 290   L218 358   A16 16 90 0 0 234 374   L260 374   M148 274   L202 274   A16 16 90 0 1 218 290   L218 358   A16 16 90 0 0 234 374   L260 374   M148 274   L202 274   A16 16 90 0 1 218 290   L218 410   A16 16 90 0 0 234 426   L260 426   M148 274   L202 274   A16 16 90 0 1 218 290   L218 410   A16 16 90 0 0 234 426   L260 426   M148 274   L202 274   A16 16 90 0 1 218 290   L218 410   A16 16 90 0 0 234 426   L260 426   M148 274   L202 274   A16 16 90 0 1 218 290   L218 410   A16 16 90 0 0 234 426   L260 426   M148 274   L202 274   A16 16 90 0 1 218 290   L218 462   A16 16 90 0 0 234 478   L260 478   M148 274   L202 274   A16 16 90 0 1 218 290   L218 462   A16 16 90 0 0 234 478   L260 478   M148 274   L202 274   A16 16 90 0 1 218 290   L218 462   A16 16 90 0 0 234 478   L260 478   M148 274   L202 274   A16 16 90 0 1 218 290   L218 462   A16 16 90 0 0 234 478   L260 478   M148 274   L202 274   A16 16 90 0 1 218 290   L218 514   A16 16 90 0 0 234 530   L260 530   M148 274   L202 274   A16 16 90 0 1 218 290   L218 514   A16 16 90 0 0 234 530   L260 530   M148 274   L202 274   A16 16 90 0 1 218 290   L218 514   A16 16 90 0 0 234 530   L260 530   M148 274   L202 274   A16 16 90 0 1 218 290   L218 514   A16 16 90 0 0 234 530   L260 530   M148 274   L202 274   A16 16 90 0 1 218 290   L218 566   A16 16 90 0 0 234 582   L260 582   M148 274   L202 274   A16 16 90 0 1 218 290   L218 566   A16 16 90 0 0 234 582   L260 582   M148 274   L202 274   A16 16 90 0 1 218 290   L218 566   A16 16 90 0 0 234 582   L260 582   M148 274   L202 274   A16 16 90 0 1 218 290   L218 566   A16 16 90 0 0 234 582   L260 582" stroke="white" stroke-width="5"/><path class="link" d="   M148 274   L202 274   A16 16 90 0 1 218 290   L218 306   A16 16 90 0 0 234 322   L260 322   M148 274   L202 274   A16 16 90 0 1 218 290   L218 306   A16 16 90 0 0 234 322   L260 322   M148 274   L202 274   A16 16 90 0 1 218 290   L218 306   A16 16 90 0 0 234 322   L260 322   M148 274   L202 274   A16 16 90 0 1 218 290   L218 306   A16 16 90 0 0 234 322   L260 322   M148 274   L202 274   A16 16 90 0 1 218 290   L218 358   A16 16 90 0 0 234 374   L260 374   M148 274   L202 274   A16 16 90 0 1 218 290   L218 358   A16 16 90 0 0 234 374   L260 374   M148 274   L202 274   A16 16 90 0 1 218 290   L218 358   A16 16 90 0 0 234 374   L260 374   M148 274   L202 274   A16 16 90 0 1 218 290   L218 358   A16 16 90 0 0 234 374   L260 374   M148 274   L202 274   A16 16 90 0 1 218 290   L218 410   A16 16 90 0 0 234 426   L260 426   M148 274   L202 274   A16 16 90 0 1 218 290   L218 410   A16 16 90 0 0 234 426   L260 426   M148 274   L202 274   A16 16 90 0 1 218 290   L218 410   A16 16 90 0 0 234 426   L260 426   M148 274   L202 274   A16 16 90 0 1 218 290   L218 410   A16 16 90 0 0 234 426   L260 426   M148 274   L202 274   A16 16 90 0 1 218 290   L218 462   A16 16 90 0 0 234 478   L260 478   M148 274   L202 274   A16 16 90 0 1 218 290   L218 462   A16 16 90 0 0 234 478   L260 478   M148 274   L202 274   A16 16 90 0 1 218 290   L218 462   A16 16 90 0 0 234 478   L260 478   M148 274   L202 274   A16 16 90 0 1 218 290   L218 462   A16 16 90 0 0 234 478   L260 478   M148 274   L202 274   A16 16 90 0 1 218 290   L218 514   A16 16 90 0 0 234 530   L260 530   M148 274   L202 274   A16 16 90 0 1 218 290   L218 514   A16 16 90 0 0 234 530   L260 530   M148 274   L202 274   A16 16 90 0 1 218 290   L218 514   A16 16 90 0 0 234 530   L260 530   M148 274   L202 274   A16 16 90 0 1 218 290   L218 514   A16 16 90 0 0 234 530   L260 530   M148 274   L202 274   A16 16 90 0 1 218 290   L218 566   A16 16 90 0 0 234 582   L260 582   M148 274   L202 274   A16 16 90 0 1 218 290   L218 566   A16 16 90 0 0 234 582   L260 582   M148 274   L202 274   A16 16 90 0 1 218 290   L218 566   A16 16 90 0 0 234 582   L260 582   M148 274   L202 274   A16 16 90 0 1 218 290   L218 566   A16 16 90 0 0 234 582   L260 582" stroke="#666666" stroke-width="2"/><path class="link" d="   M148 230   L300 230   A86 86 90 0 1 386 316   L386 610   A16 16 90 0 0 402 626   L512 626   M148 230   L300 230   A86 86 90 0 1 386 316   L386 610   A16 16 90 0 0 402 626   L512 626   M260 318   L370 318   A16 16 90 0 1 386 334   L386 610   A16 16 90 0 0 402 626   L512 626   M260 318   L370 318   A16 16 90 0 1 386 334   L386 610   A16 16 90 0 0 402 626   L512 626   M148 230   L300 230   A86 86 90 0 1 386 316   L386 610   A16 16 90 0 0 402 626   L512 626   M260 370   L370 370   A16 16 90 0 1 386 386   L386 610   A16 16 90 0 0 402 626   L512 626   M260 370   L370 370   A16 16 90 0 1 386 386   L386 610   A16 16 90 0 0 402 626   L512 626   M148 230   L300 230   A86 86 90 0 1 386 316   L386 610   A16 16 90 0 0 402 626   L512 626   M260 422   L370 422   A16 16 90 0 1 386 438   L386 610   A16 16 90 0 0 402 626   L512 626   M260 422   L370 422   A16 16 90 0 1 386 438   L386 610   A16 16 90 0 0 402 626   L512 626   M148 230   L300 230   A86 86 90 0 1 386 316   L386 610   A16 16 90 0 0 402 626   L512 626   M260 474   L370 474   A16 16 90 0 1 386 490   L386 610   A16 16 90 0 0 402 626   L512 626   M260 474   L370 474   A16 16 90 0 1 386 490   L386 610   A16 16 90 0 0 402 626   L512 626   M148 230   L300 230   A86 86 90 0 1 386 316   L386 610   A16 16 90 0 0 402 626   L512 626   M260 526   L370 526   A16 16 90 0 1 386 542   L386 610   A16 16 90 0 0 402 626   L512 626   M260 526   L370 526   A16 16 90 0 1 386 542   L386 610   A16 16 90 0 0 402 626   L512 626   M148 230   L300 230   A86 86 90 0 1 386 316   L386 610   A16 16 90 0 0 402 626   L512 626   M260 578   L370 578   A16 16 90 0 1 386 594   L386 610   A16 16 90 0 0 402 626   L512 626   M260 578   L370 578   A16 16 90 0 1 386 594   L386 610   A16 16 90 0 0 402 626   L512 626   M148 230   L300 230   A86 86 90 0 1 386 316   L386 610   A16 16 90 0 0 402 626   L512 626   M148 230   L300 230   A86 86 90 0 1 386 316   L386 610   A16 16 90 0 0 402 626   L512 626   M148 230   L300 230   A86 86 90 0 1 386 316   L386 610   A16 16 90 0 0 402 626   L512 626   M148 230   L300 230   A86 86 90 0 1 386 316   L386 610   A16 16 90 0 0 402 626   L512 626   M148 230   L300 230   A86 86 90 0 1 386 316   L386 610   A16 16 90 0 0 402 626   L512 626" stroke="white" stroke-width="5"/><path class="link" d="   M148 230   L300 230   A86 86 90 0 1 386 316   L386 610   A16 16 90 0 0 402 626   L512 626   M148 230   L300 230   A86 86 90 0 1 386 316   L386 610   A16 16 90 0 0 402 626   L512 626   M260 318   L370 318   A16 16 90 0 1 386 334   L386 610   A16 16 90 0 0 402 626   L512 626   M260 318   L370 318   A16 16 90 0 1 386 334   L386 610   A16 16 90 0 0 402 626   L512 626   M148 230   L300 230   A86 86 90 0 1 386 316   L386 610   A16 16 90 0 0 402 626   L512 626   M260 370   L370 370   A16 16 90 0 1 386 386   L386 610   A16 16 90 0 0 402 626   L512 626   M260 370   L370 370   A16 16 90 0 1 386 386   L386 610   A16 16 90 0 0 402 626   L512 626   M148 230   L300 230   A86 86 90 0 1 386 316   L386 610   A16 16 90 0 0 402 626   L512 626   M260 422   L370 422   A16 16 90 0 1 386 438   L386 610   A16 16 90 0 0 402 626   L512 626   M260 422   L370 422   A16 16 90 0 1 386 438   L386 610   A16 16 90 0 0 402 626   L512 626   M148 230   L300 230   A86 86 90 0 1 386 316   L386 610   A16 16 90 0 0 402 626   L512 626   M260 474   L370 474   A16 16 90 0 1 386 490   L386 610   A16 16 90 0 0 402 626   L512 626   M260 474   L370 474   A16 16 90 0 1 386 490   L386 610   A16 16 90 0 0 402 626   L512 626   M148 230   L300 230   A86 86 90 0 1 386 316   L386 610   A16 16 90 0 0 402 626   L512 626   M260 526   L370 526   A16 16 90 0 1 386 542   L386 610   A16 16 90 0 0 402 626   L512 626   M260 526   L370 526   A16 16 90 0 1 386 542   L386 610   A16 16 90 0 0 402 626   L512 626   M148 230   L300 230   A86 86 90 0 1 386 316   L386 610   A16 16 90 0 0 402 626   L512 626   M260 578   L370 578   A16 16 90 0 1 386 594   L386 610   A16 16 90 0 0 402 626   L512 626   M260 578   L370 578   A16 16 90 0 1 386 594   L386 610   A16 16 90 0 0 402 626   L512 626   M148 230   L300 230   A86 86 90 0 1 386 316   L386 610   A16 16 90 0 0 402 626   L512 626   M148 230   L300 230   A86 86 90 0 1 386 316   L386 610   A16 16 90 0 0 402 626   L512 626   M148 230   L300 230   A86 86 90 0 1 386 316   L386 610   A16 16 90 0 0 402 626   L512 626   M148 230   L300 230   A86 86 90 0 1 386 316   L386 610   A16 16 90 0 0 402 626   L512 626   M148 230   L300 230   A86 86 90 0 1 386 316   L386 610   A16 16 90 0 0 402 626   L512 626" stroke="#1b9e77" stroke-width="2"/><path class="link" d="   M260 322   L468 322   A16 16 90 0 1 484 338   L484 632   A16 16 90 0 0 500 648   L512 648   M260 322   L468 322   A16 16 90 0 1 484 338   L484 632   A16 16 90 0 0 500 648   L512 648" stroke="white" stroke-width="5"/><path class="link" d="   M260 322   L468 322   A16 16 90 0 1 484 338   L484 632   A16 16 90 0 0 500 648   L512 648   M260 322   L468 322   A16 16 90 0 1 484 338   L484 632   A16 16 90 0 0 500 648   L512 648" stroke="#d95f02" stroke-width="2"/><path class="link" d="   M260 326   L454 326   A16 16 90 0 1 470 342   L470 654   A16 16 90 0 0 486 670   L512 670   M260 326   L454 326   A16 16 90 0 1 470 342   L470 654   A16 16 90 0 0 486 670   L512 670   M260 326   L454 326   A16 16 90 0 1 470 342   L470 654   A16 16 90 0 0 486 670   L512 670" stroke="white" stroke-width="5"/><path class="link" d="   M260 326   L454 326   A16 16 90 0 1 470 342   L470 654   A16 16 90 0 0 486 670   L512 670   M260 326   L454 326   A16 16 90 0 1 470 342   L470 654   A16 16 90 0 0 486 670   L512 670   M260 326   L454 326   A16 16 90 0 1 470 342   L470 654   A16 16 90 0 0 486 670   L512 670" stroke="#7570b3" stroke-width="2"/><path class="link" d="   M260 374   L440 374   A16 16 90 0 1 456 390   L456 676   A16 16 90 0 0 472 692   L512 692   M260 374   L440 374   A16 16 90 0 1 456 390   L456 676   A16 16 90 0 0 472 692   L512 692" stroke="white" stroke-width="5"/><path class="link" d="   M260 374   L440 374   A16 16 90 0 1 456 390   L456 676   A16 16 90 0 0 472 692   L512 692   M260 374   L440 374   A16 16 90 0 1 456 390   L456 676   A16 16 90 0 0 472 692   L512 692" stroke="#e7298a" stroke-width="2"/><path class="link" d="   M260 378   L426 378   A16 16 90 0 1 442 394   L442 698   A16 16 90 0 0 458 714   L512 714   M260 378   L426 378   A16 16 90 0 1 442 394   L442 698   A16 16 90 0 0 458 714   L512 714   M260 378   L426 378   A16 16 90 0 1 442 394   L442 698   A16 16 90 0 0 458 714   L512 714" stroke="white" stroke-width="5"/><path class="link" d="   M260 378   L426 378   A16 16 90 0 1 442 394   L442 698   A16 16 90 0 0 458 714   L512 714   M260 378   L426 378   A16 16 90 0 1 442 394   L442 698   A16 16 90 0 0 458 714   L512 714   M260 378   L426 378   A16 16 90 0 1 442 394   L442 698   A16 16 90 0 0 458 714   L512 714" stroke="#66a61e" stroke-width="2"/><path class="link" d="   M260 426   L412 426   A16 16 90 0 1 428 442   L428 720   A16 16 90 0 0 444 736   L512 736   M260 426   L412 426   A16 16 90 0 1 428 442   L428 720   A16 16 90 0 0 444 736   L512 736" stroke="white" stroke-width="5"/><path class="link" d="   M260 426   L412 426   A16 16 90 0 1 428 442   L428 720   A16 16 90 0 0 444 736   L512 736   M260 426   L412 426   A16 16 90 0 1 428 442   L428 720   A16 16 90 0 0 444 736   L512 736" stroke="#e6ab02" stroke-width="2"/><path class="link" d="   M260 430   L398 430   A16 16 90 0 1 414 446   L414 742   A16 16 90 0 0 430 758   L512 758   M260 430   L398 430   A16 16 90 0 1 414 446   L414 742   A16 16 90 0 0 430 758   L512 758   M260 430   L398 430   A16 16 90 0 1 414 446   L414 742   A16 16 90 0 0 430 758   L512 758" stroke="white" stroke-width="5"/><path class="link" d="   M260 430   L398 430   A16 16 90 0 1 414 446   L414 742   A16 16 90 0 0 430 758   L512 758   M260 430   L398 430   A16 16 90 0 1 414 446   L414 742   A16 16 90 0 0 430 758   L512 758   M260 430   L398 430   A16 16 90 0 1 414 446   L414 742   A16 16 90 0 0 430 758   L512 758" stroke="#a6761d" stroke-width="2"/><path class="link" d="   M260 478   L384 478   A16 16 90 0 1 400 494   L400 764   A16 16 90 0 0 416 780   L512 780   M260 478   L384 478   A16 16 90 0 1 400 494   L400 764   A16 16 90 0 0 416 780   L512 780" stroke="white" stroke-width="5"/><path class="link" d="   M260 478   L384 478   A16 16 90 0 1 400 494   L400 764   A16 16 90 0 0 416 780   L512 780   M260 478   L384 478   A16 16 90 0 1 400 494   L400 764   A16 16 90 0 0 416 780   L512 780" stroke="#666666" stroke-width="2"/><path class="link" d="   M260 482   L370 482   A16 16 90 0 1 386 498   L386 786   A16 16 90 0 0 402 802   L512 802   M260 482   L370 482   A16 16 90 0 1 386 498   L386 786   A16 16 90 0 0 402 802   L512 802   M260 482   L370 482   A16 16 90 0 1 386 498   L386 786   A16 16 90 0 0 402 802   L512 802" stroke="white" stroke-width="5"/><path class="link" d="   M260 482   L370 482   A16 16 90 0 1 386 498   L386 786   A16 16 90 0 0 402 802   L512 802   M260 482   L370 482   A16 16 90 0 1 386 498   L386 786   A16 16 90 0 0 402 802   L512 802   M260 482   L370 482   A16 16 90 0 1 386 498   L386 786   A16 16 90 0 0 402 802   L512 802" stroke="#1b9e77" stroke-width="2"/><path class="link" d="   M260 530   L356 530   A16 16 90 0 1 372 546   L372 808   A16 16 90 0 0 388 824   L512 824   M260 530   L356 530   A16 16 90 0 1 372 546   L372 808   A16 16 90 0 0 388 824   L512 824" stroke="white" stroke-width="5"/><path class="link" d="   M260 530   L356 530   A16 16 90 0 1 372 546   L372 808   A16 16 90 0 0 388 824   L512 824   M260 530   L356 530   A16 16 90 0 1 372 546   L372 808   A16 16 90 0 0 388 824   L512 824" stroke="#d95f02" stroke-width="2"/><path class="link" d="   M260 534   L342 534   A16 16 90 0 1 358 550   L358 830   A16 16 90 0 0 374 846   L512 846   M260 534   L342 534   A16 16 90 0 1 358 550   L358 830   A16 16 90 0 0 374 846   L512 846   M260 534   L342 534   A16 16 90 0 1 358 550   L358 830   A16 16 90 0 0 374 846   L512 846" stroke="white" stroke-width="5"/><path class="link" d="   M260 534   L342 534   A16 16 90 0 1 358 550   L358 830   A16 16 90 0 0 374 846   L512 846   M260 534   L342 534   A16 16 90 0 1 358 550   L358 830   A16 16 90 0 0 374 846   L512 846   M260 534   L342 534   A16 16 90 0 1 358 550   L358 830   A16 16 90 0 0 374 846   L512 846" stroke="#7570b3" stroke-width="2"/><path class="link" d="   M260 582   L328 582   A16 16 90 0 1 344 598   L344 852   A16 16 90 0 0 360 868   L512 868   M260 582   L328 582   A16 16 90 0 1 344 598   L344 852   A16 16 90 0 0 360 868   L512 868" stroke="white" stroke-width="5"/><path class="link" d="   M260 582   L328 582   A16 16 90 0 1 344 598   L344 852   A16 16 90 0 0 360 868   L512 868   M260 582   L328 582   A16 16 90 0 1 344 598   L344 852   A16 16 90 0 0 360 868   L512 868" stroke="#e7298a" stroke-width="2"/><path class="link" d="   M260 586   L314 586   A16 16 90 0 1 330 602   L330 874   A16 16 90 0 0 346 890   L512 890   M260 586   L314 586   A16 16 90 0 1 330 602   L330 874   A16 16 90 0 0 346 890   L512 890   M260 586   L314 586   A16 16 90 0 1 330 602   L330 874   A16 16 90 0 0 346 890   L512 890" stroke="white" stroke-width="5"/><path class="link" d="   M260 586   L314 586   A16 16 90 0 1 330 602   L330 874   A16 16 90 0 0 346 890   L512 890   M260 586   L314 586   A16 16 90 0 1 330 602   L330 874   A16 16 90 0 0 346 890   L512 890   M260 586   L314 586   A16 16 90 0 1 330 602   L330 874   A16 16 90 0 0 346 890   L512 890" stroke="#66a61e" stroke-width="2"/><path class="link" d="   M512 626   L650 626   A16 16 90 0 1 666 642   L666 780   A16 16 90 0 0 682 796   L680 796   M512 626   L650 626   A16 16 90 0 1 666 642   L666 780   A16 16 90 0 0 682 796   L680 796   M512 626   L650 626   A16 16 90 0 1 666 642   L666 780   A16 16 90 0 0 682 796   L680 796   M512 626   L650 626   A16 16 90 0 1 666 642   L666 780   A16 16 90 0 0 682 796   L680 796   M512 626   L650 626   A16 16 90 0 1 666 642   L666 780   A16 16 90 0 0 682 796   L680 796   M512 626   L650 626   A16 16 90 0 1 666 642   L666 780   A16 16 90 0 0 682 796   L680 796   M512 626   L650 626   A16 16 90 0 1 666 642   L666 780   A16 16 90 0 0 682 796   L680 796   M512 626   L650 626   A16 16 90 0 1 666 642   L666 780   A16 16 90 0 0 682 796   L680 796   M512 626   L650 626   A16 16 90 0 1 666 642   L666 780   A16 16 90 0 0 682 796   L680 796   M512 626   L650 626   A16 16 90 0 1 666 642   L666 780   A16 16 90 0 0 682 796   L680 796   M512 626   L650 626   A16 16 90 0 1 666 642   L666 780   A16 16 90 0 0 682 796   L680 796   M512 626   L650 626   A16 16 90 0 1 666 642   L666 780   A16 16 90 0 0 682 796   L680 796" stroke="white" stroke-width="5"/><path class="link" d="   M512 626   L650 626   A16 16 90 0 1 666 642   L666 780   A16 16 90 0 0 682 796   L680 796   M512 626   L650 626   A16 16 90 0 1 666 642   L666 780   A16 16 90 0 0 682 796   L680 796   M512 626   L650 626   A16 16 90 0 1 666 642   L666 780   A16 16 90 0 0 682 796   L680 796   M512 626   L650 626   A16 16 90 0 1 666 642   L666 780   A16 16 90 0 0 682 796   L680 796   M512 626   L650 626   A16 16 90 0 1 666 642   L666 780   A16 16 90 0 0 682 796   L680 796   M512 626   L650 626   A16 16 90 0 1 666 642   L666 780   A16 16 90 0 0 682 796   L680 796   M512 626   L650 626   A16 16 90 0 1 666 642   L666 780   A16 16 90 0 0 682 796   L680 796   M512 626   L650 626   A16 16 90 0 1 666 642   L666 780   A16 16 90 0 0 682 796   L680 796   M512 626   L650 626   A16 16 90 0 1 666 642   L666 780   A16 16 90 0 0 682 796   L680 796   M512 626   L650 626   A16 16 90 0 1 666 642   L666 780   A16 16 90 0 0 682 796   L680 796   M512 626   L650 626   A16 16 90 0 1 666 642   L666 780   A16 16 90 0 0 682 796   L680 796   M512 626   L650 626   A16 16 90 0 1 666 642   L666 780   A16 16 90 0 0 682 796   L680 796" stroke="#e6ab02" stroke-width="2"/><path class="link" d="   M512 670   L636 670   A16 16 90 0 1 652 686   L652 808   A16 16 90 0 0 668 824   L680 824   M512 670   L636 670   A16 16 90 0 1 652 686   L652 808   A16 16 90 0 0 668 824   L680 824   M512 670   L636 670   A16 16 90 0 1 652 686   L652 808   A16 16 90 0 0 668 824   L680 824" stroke="white" stroke-width="5"/><path class="link" d="   M512 670   L636 670   A16 16 90 0 1 652 686   L652 808   A16 16 90 0 0 668 824   L680 824   M512 670   L636 670   A16 16 90 0 1 652 686   L652 808   A16 16 90 0 0 668 824   L680 824   M512 670   L636 670   A16 16 90 0 1 652 686   L652 808   A16 16 90 0 0 668 824   L680 824" stroke="#a6761d" stroke-width="2"/><path class="link" d="   M512 714   L622 714   A16 16 90 0 1 638 730   L638 830   A16 16 90 0 0 654 846   L680 846   M512 714   L622 714   A16 16 90 0 1 638 730   L638 830   A16 16 90 0 0 654 846   L680 846   M512 714   L622 714   A16 16 90 0 1 638 730   L638 830   A16 16 90 0 0 654 846   L680 846" stroke="white" stroke-width="5"/><path class="link" d="   M512 714   L622 714   A16 16 90 0 1 638 730   L638 830   A16 16 90 0 0 654 846   L680 846   M512 714   L622 714   A16 16 90 0 1 638 730   L638 830   A16 16 90 0 0 654 846   L680 846   M512 714   L622 714   A16 16 90 0 1 638 730   L638 830   A16 16 90 0 0 654 846   L680 846" stroke="#666666" stroke-width="2"/><path class="link" d="   M512 758   L608 758   A16 16 90 0 1 624 774   L624 852   A16 16 90 0 0 640 868   L680 868   M512 758   L608 758   A16 16 90 0 1 624 774   L624 852   A16 16 90 0 0 640 868   L680 868   M512 758   L608 758   A16 16 90 0 1 624 774   L624 852   A16 16 90 0 0 640 868   L680 868" stroke="white" stroke-width="5"/><path class="link" d="   M512 758   L608 758   A16 16 90 0 1 624 774   L624 852   A16 16 90 0 0 640 868   L680 868   M512 758   L608 758   A16 16 90 0 1 624 774   L624 852   A16 16 90 0 0 640 868   L680 868   M512 758   L608 758   A16 16 90 0 1 624 774   L624 852   A16 16 90 0 0 640 868   L680 868" stroke="#1b9e77" stroke-width="2"/><path class="link" d="   M512 802   L594 802   A16 16 90 0 1 610 818   L610 874   A16 16 90 0 0 626 890   L680 890   M512 802   L594 802   A16 16 90 0 1 610 818   L610 874   A16 16 90 0 0 626 890   L680 890   M512 802   L594 802   A16 16 90 0 1 610 818   L610 874   A16 16 90 0 0 626 890   L680 890" stroke="white" stroke-width="5"/><path class="link" d="   M512 802   L594 802   A16 16 90 0 1 610 818   L610 874   A16 16 90 0 0 626 890   L680 890   M512 802   L594 802   A16 16 90 0 1 610 818   L610 874   A16 16 90 0 0 626 890   L680 890   M512 802   L594 802   A16 16 90 0 1 610 818   L610 874   A16 16 90 0 0 626 890   L680 890" stroke="#d95f02" stroke-width="2"/><path class="link" d="   M512 846   L580 846   A16 16 90 0 1 596 862   L596 896   A16 16 90 0 0 612 912   L680 912   M512 846   L580 846   A16 16 90 0 1 596 862   L596 896   A16 16 90 0 0 612 912   L680 912   M512 846   L580 846   A16 16 90 0 1 596 862   L596 896   A16 16 90 0 0 612 912   L680 912" stroke="white" stroke-width="5"/><path class="link" d="   M512 846   L580 846   A16 16 90 0 1 596 862   L596 896   A16 16 90 0 0 612 912   L680 912   M512 846   L580 846   A16 16 90 0 1 596 862   L596 896   A16 16 90 0 0 612 912   L680 912   M512 846   L580 846   A16 16 90 0 1 596 862   L596 896   A16 16 90 0 0 612 912   L680 912" stroke="#7570b3" stroke-width="2"/><path class="link" d="   M512 890   L566 890   A16 16 90 0 1 582 906   L582 922   A16 16 90 0 0 598 938   L680 938   M512 890   L566 890   A16 16 90 0 1 582 906   L582 922   A16 16 90 0 0 598 938   L680 938   M512 890   L566 890   A16 16 90 0 1 582 906   L582 922   A16 16 90 0 0 598 938   L680 938" stroke="white" stroke-width="5"/><path class="link" d="   M512 890   L566 890   A16 16 90 0 1 582 906   L582 922   A16 16 90 0 0 598 938   L680 938   M512 890   L566 890   A16 16 90 0 1 582 906   L582 922   A16 16 90 0 0 598 938   L680 938   M512 890   L566 890   A16 16 90 0 1 582 906   L582 922   A16 16 90 0 0 598 938   L680 938" stroke="#e7298a" stroke-width="2"/><path class="link" d="   M148 252   L258 252   A86 86 90 0 1 344 338   L344 920   A16 16 90 0 0 360 936   L890 936   M148 252   L258 252   A86 86 90 0 1 344 338   L344 920   A16 16 90 0 0 360 936   L890 936   M680 790   L328 790   A16 16 90 0 1 344 806   L344 920   A16 16 90 0 0 360 936   L890 936   M680 790   L328 790   A16 16 90 0 1 344 806   L344 920   A16 16 90 0 0 360 936   L890 936   M148 252   L258 252   A86 86 90 0 1 344 338   L344 920   A16 16 90 0 0 360 936   L890 936   M680 790   L328 790   A16 16 90 0 1 344 806   L344 920   A16 16 90 0 0 360 936   L890 936   M148 252   L258 252   A86 86 90 0 1 344 338   L344 920   A16 16 90 0 0 360 936   L890 936   M680 790   L328 790   A16 16 90 0 1 344 806   L344 920   A16 16 90 0 0 360 936   L890 936   M148 252   L258 252   A86 86 90 0 1 344 338   L344 920   A16 16 90 0 0 360 936   L890 936   M680 790   L328 790   A16 16 90 0 1 344 806   L344 920   A16 16 90 0 0 360 936   L890 936   M148 252   L258 252   A86 86 90 0 1 344 338   L344 920   A16 16 90 0 0 360 936   L890 936   M680 790   L328 790   A16 16 90 0 1 344 806   L344 920   A16 16 90 0 0 360 936   L890 936" stroke="white" stroke-width="5"/><path class="link" d="   M148 252   L258 252   A86 86 90 0 1 344 338   L344 920   A16 16 90 0 0 360 936   L890 936   M148 252   L258 252   A86 86 90 0 1 344 338   L344 920   A16 16 90 0 0 360 936   L890 936   M680 790   L328 790   A16 16 90 0 1 344 806   L344 920   A16 16 90 0 0 360 936   L890 936   M680 790   L328 790   A16 16 90 0 1 344 806   L344 920   A16 16 90 0 0 360 936   L890 936   M148 252   L258 252   A86 86 90 0 1 344 338   L344 920   A16 16 90 0 0 360 936   L890 936   M680 790   L328 790   A16 16 90 0 1 344 806   L344 920   A16 16 90 0 0 360 936   L890 936   M148 252   L258 252   A86 86 90 0 1 344 338   L344 920   A16 16 90 0 0 360 936   L890 936   M680 790   L328 790   A16 16 90 0 1 344 806   L344 920   A16 16 90 0 0 360 936   L890 936   M148 252   L258 252   A86 86 90 0 1 344 338   L344 920   A16 16 90 0 0 360 936   L890 936   M680 790   L328 790   A16 16 90 0 1 344 806   L344 920   A16 16 90 0 0 360 936   L890 936   M148 252   L258 252   A86 86 90 0 1 344 338   L344 920   A16 16 90 0 0 360 936   L890 936   M680 790   L328 790   A16 16 90 0 1 344 806   L344 920   A16 16 90 0 0 360 936   L890 936" stroke="#66a61e" stroke-width="2"/><path class="link" d="   M680 794   L846 794   A16 16 90 0 1 862 810   L862 944   A16 16 90 0 0 878 960   L890 960   M680 794   L846 794   A16 16 90 0 1 862 810   L862 944   A16 16 90 0 0 878 960   L890 960" stroke="white" stroke-width="5"/><path class="link" d="   M680 794   L846 794   A16 16 90 0 1 862 810   L862 944   A16 16 90 0 0 878 960   L890 960   M680 794   L846 794   A16 16 90 0 1 862 810   L862 944   A16 16 90 0 0 878 960   L890 960" stroke="#e6ab02" stroke-width="2"/><path class="link" d="   M680 798   L832 798   A16 16 90 0 1 848 814   L848 966   A16 16 90 0 0 864 982   L890 982   M680 798   L832 798   A16 16 90 0 1 848 814   L848 966   A16 16 90 0 0 864 982   L890 982   M680 798   L832 798   A16 16 90 0 1 848 814   L848 966   A16 16 90 0 0 864 982   L890 982   M680 798   L832 798   A16 16 90 0 1 848 814   L848 966   A16 16 90 0 0 864 982   L890 982   M680 798   L832 798   A16 16 90 0 1 848 814   L848 966   A16 16 90 0 0 864 982   L890 982   M680 798   L832 798   A16 16 90 0 1 848 814   L848 966   A16 16 90 0 0 864 982   L890 982   M680 798   L832 798   A16 16 90 0 1 848 814   L848 966   A16 16 90 0 0 864 982   L890 982   M680 934   L832 934   A16 16 90 0 1 848 950   L848 966   A16 16 90 0 0 864 982   L890 982   M680 934   L832 934   A16 16 90 0 1 848 950   L848 966   A16 16 90 0 0 864 982   L890 982   M680 798   L832 798   A16 16 90 0 1 848 814   L848 966   A16 16 90 0 0 864 982   L890 982" stroke="white" stroke-width="5"/><path class="link" d="   M680 798   L832 798   A16 16 90 0 1 848 814   L848 966   A16 16 90 0 0 864 982   L890 982   M680 798   L832 798   A16 16 90 0 1 848 814   L848 966   A16 16 90 0 0 864 982   L890 982   M680 798   L832 798   A16 16 90 0 1 848 814   L848 966   A16 16 90 0 0 864 982   L890 982   M680 798   L832 798   A16 16 90 0 1 848 814   L848 966   A16 16 90 0 0 864 982   L890 982   M680 798   L832 798   A16 16 90 0 1 848 814   L848 966   A16 16 90 0 0 864 982   L890 982   M680 798   L832 798   A16 16 90 0 1 848 814   L848 966   A16 16 90 0 0 864 982   L890 982   M680 798   L832 798   A16 16 90 0 1 848 814   L848 966   A16 16 90 0 0 864 982   L890 982   M680 934   L832 934   A16 16 90 0 1 848 950   L848 966   A16 16 90 0 0 864 982   L890 982   M680 934   L832 934   A16 16 90 0 1 848 950   L848 966   A16 16 90 0 0 864 982   L890 982   M680 798   L832 798   A16 16 90 0 1 848 814   L848 966   A16 16 90 0 0 864 982   L890 982" stroke="#a6761d" stroke-width="2"/><path class="link" d="   M680 824   L818 824   A16 16 90 0 1 834 840   L834 988   A16 16 90 0 0 850 1004   L890 1004   M680 824   L818 824   A16 16 90 0 1 834 840   L834 988   A16 16 90 0 0 850 1004   L890 1004   M680 824   L818 824   A16 16 90 0 1 834 840   L834 988   A16 16 90 0 0 850 1004   L890 1004" stroke="white" stroke-width="5"/><path class="link" d="   M680 824   L818 824   A16 16 90 0 1 834 840   L834 988   A16 16 90 0 0 850 1004   L890 1004   M680 824   L818 824   A16 16 90 0 1 834 840   L834 988   A16 16 90 0 0 850 1004   L890 1004   M680 824   L818 824   A16 16 90 0 1 834 840   L834 988   A16 16 90 0 0 850 1004   L890 1004" stroke="#666666" stroke-width="2"/><path class="link" d="   M680 846   L804 846   A16 16 90 0 1 820 862   L820 1010   A16 16 90 0 0 836 1026   L890 1026   M680 846   L804 846   A16 16 90 0 1 820 862   L820 1010   A16 16 90 0 0 836 1026   L890 1026   M680 846   L804 846   A16 16 90 0 1 820 862   L820 1010   A16 16 90 0 0 836 1026   L890 1026" stroke="white" stroke-width="5"/><path class="link" d="   M680 846   L804 846   A16 16 90 0 1 820 862   L820 1010   A16 16 90 0 0 836 1026   L890 1026   M680 846   L804 846   A16 16 90 0 1 820 862   L820 1010   A16 16 90 0 0 836 1026   L890 1026   M680 846   L804 846   A16 16 90 0 1 820 862   L820 1010   A16 16 90 0 0 836 1026   L890 1026" stroke="#1b9e77" stroke-width="2"/><path class="link" d="   M680 868   L790 868   A16 16 90 0 1 806 884   L806 1032   A16 16 90 0 0 822 1048   L890 1048   M680 868   L790 868   A16 16 90 0 1 806 884   L806 1032   A16 16 90 0 0 822 1048   L890 1048   M680 868   L790 868   A16 16 90 0 1 806 884   L806 1032   A16 16 90 0 0 822 1048   L890 1048" stroke="white" stroke-width="5"/><path class="link" d="   M680 868   L790 868   A16 16 90 0 1 806 884   L806 1032   A16 16 90 0 0 822 1048   L890 1048   M680 868   L790 868   A16 16 90 0 1 806 884   L806 1032   A16 16 90 0 0 822 1048   L890 1048   M680 868   L790 868   A16 16 90 0 1 806 884   L806 1032   A16 16 90 0 0 822 1048   L890 1048" stroke="#d95f02" stroke-width="2"/><path class="link" d="   M680 890   L776 890   A16 16 90 0 1 792 906   L792 1054   A16 16 90 0 0 808 1070   L890 1070   M680 890   L776 890   A16 16 90 0 1 792 906   L792 1054   A16 16 90 0 0 808 1070   L890 1070   M680 890   L776 890   A16 16 90 0 1 792 906   L792 1054   A16 16 90 0 0 808 1070   L890 1070" stroke="white" stroke-width="5"/><path class="link" d="   M680 890   L776 890   A16 16 90 0 1 792 906   L792 1054   A16 16 90 0 0 808 1070   L890 1070   M680 890   L776 890   A16 16 90 0 1 792 906   L792 1054   A16 16 90 0 0 808 1070   L890 1070   M680 890   L776 890   A16 16 90 0 1 792 906   L792 1054   A16 16 90 0 0 808 1070   L890 1070" stroke="#7570b3" stroke-width="2"/><path class="link" d="   M680 912   L762 912   A16 16 90 0 1 778 928   L778 1076   A16 16 90 0 0 794 1092   L890 1092   M680 912   L762 912   A16 16 90 0 1 778 928   L778 1076   A16 16 90 0 0 794 1092   L890 1092   M680 912   L762 912   A16 16 90 0 1 778 928   L778 1076   A16 16 90 0 0 794 1092   L890 1092" stroke="white" stroke-width="5"/><path class="link" d="   M680 912   L762 912   A16 16 90 0 1 778 928   L778 1076   A16 16 90 0 0 794 1092   L890 1092   M680 912   L762 912   A16 16 90 0 1 778 928   L778 1076   A16 16 90 0 0 794 1092   L890 1092   M680 912   L762 912   A16 16 90 0 1 778 928   L778 1076   A16 16 90 0 0 794 1092   L890 1092" stroke="#e7298a" stroke-width="2"/><path class="link" d="   M680 938   L748 938   A16 16 90 0 1 764 954   L764 1098   A16 16 90 0 0 780 1114   L890 1114   M680 938   L748 938   A16 16 90 0 1 764 954   L764 1098   A16 16 90 0 0 780 1114   L890 1114" stroke="white" stroke-width="5"/><path class="link" d="   M680 938   L748 938   A16 16 90 0 1 764 954   L764 1098   A16 16 90 0 0 780 1114   L890 1114   M680 938   L748 938   A16 16 90 0 1 764 954   L764 1098   A16 16 90 0 0 780 1114   L890 1114" stroke="#66a61e" stroke-width="2"/><path class="link" d="   M680 942   L734 942   A16 16 90 0 1 750 958   L750 1120   A16 16 90 0 0 766 1136   L890 1136   M680 942   L734 942   A16 16 90 0 1 750 958   L750 1120   A16 16 90 0 0 766 1136   L890 1136   M680 942   L734 942   A16 16 90 0 1 750 958   L750 1120   A16 16 90 0 0 766 1136   L890 1136" stroke="white" stroke-width="5"/><path class="link" d="   M680 942   L734 942   A16 16 90 0 1 750 958   L750 1120   A16 16 90 0 0 766 1136   L890 1136   M680 942   L734 942   A16 16 90 0 1 750 958   L750 1120   A16 16 90 0 0 766 1136   L890 1136   M680 942   L734 942   A16 16 90 0 1 750 958   L750 1120   A16 16 90 0 0 766 1136   L890 1136" stroke="#e6ab02" stroke-width="2"/><path class="link" d="   M890 934   L958 934   A16 16 90 0 1 974 950   L974 966   A16 16 90 0 0 990 982   L988 982   M890 934   L958 934   A16 16 90 0 1 974 950   L974 966   A16 16 90 0 0 990 982   L988 982   M680 802   L888 802   A86 86 90 0 1 974 888   L974 966   A16 16 90 0 0 990 982   L988 982   M680 802   L888 802   A86 86 90 0 1 974 888   L974 966   A16 16 90 0 0 990 982   L988 982   M890 934   L958 934   A16 16 90 0 1 974 950   L974 966   A16 16 90 0 0 990 982   L988 982   M680 802   L888 802   A86 86 90 0 1 974 888   L974 966   A16 16 90 0 0 990 982   L988 982" stroke="white" stroke-width="5"/><path class="link" d="   M890 934   L958 934   A16 16 90 0 1 974 950   L974 966   A16 16 90 0 0 990 982   L988 982   M890 934   L958 934   A16 16 90 0 1 974 950   L974 966   A16 16 90 0 0 990 982   L988 982   M680 802   L888 802   A86 86 90 0 1 974 888   L974 966   A16 16 90 0 0 990 982   L988 982   M680 802   L888 802   A86 86 90 0 1 974 888   L974 966   A16 16 90 0 0 990 982   L988 982   M890 934   L958 934   A16 16 90 0 1 974 950   L974 966   A16 16 90 0 0 990 982   L988 982   M680 802   L888 802   A86 86 90 0 1 974 888   L974 966   A16 16 90 0 0 990 982   L988 982" stroke="#a6761d" stroke-width="2"/><path class="link" d="   M890 938   L944 938   A16 16 90 0 1 960 954   L960 988   A16 16 90 0 0 976 1004   L988 1004   M890 938   L944 938   A16 16 90 0 1 960 954   L960 988   A16 16 90 0 0 976 1004   L988 1004   M890 938   L944 938   A16 16 90 0 1 960 954   L960 988   A16 16 90 0 0 976 1004   L988 1004   M890 938   L944 938   A16 16 90 0 1 960 954   L960 988   A16 16 90 0 0 976 1004   L988 1004   M890 938   L944 938   A16 16 90 0 1 960 954   L960 988   A16 16 90 0 0 976 1004   L988 1004" stroke="white" stroke-width="5"/><path class="link" d="   M890 938   L944 938   A16 16 90 0 1 960 954   L960 988   A16 16 90 0 0 976 1004   L988 1004   M890 938   L944 938   A16 16 90 0 1 960 954   L960 988   A16 16 90 0 0 976 1004   L988 1004   M890 938   L944 938   A16 16 90 0 1 960 954   L960 988   A16 16 90 0 0 976 1004   L988 1004   M890 938   L944 938   A16 16 90 0 1 960 954   L960 988   A16 16 90 0 0 976 1004   L988 1004   M890 938   L944 938   A16 16 90 0 1 960 954   L960 988   A16 16 90 0 0 976 1004   L988 1004" stroke="#666666" stroke-width="2"/><line class="node" stroke="black" stroke-width="8" x1="8" y1="46" x2="8" y2="50"/><line class="node" stroke="white" stroke-width="4" x1="8" y1="46" x2="8" y2="50"/><text x="12" y="42" stroke="white" stroke-width="2">2 Root tui-browser</text><text x="12" y="42">2 Root tui-browser</text><line class="node" stroke="black" stroke-width="8" x1="8" y1="72" x2="8" y2="76"/><line class="node" stroke="white" stroke-width="4" x1="8" y1="72" x2="8" y2="76"/><text x="12" y="68" stroke="white" stroke-width="2">20 Start resetSelection</text><text x="12" y="68">20 Start resetSelection</text><line class="node" stroke="black" stroke-width="8" x1="8" y1="98" x2="8" y2="98"/><line class="node" stroke="white" stroke-width="4" x1="8" y1="98" x2="8" y2="98"/><text x="12" y="94" stroke="white" stroke-width="2">24 Root instantiation root</text><text x="12" y="94">24 Root instantiation root</text><line class="node" stroke="black" stroke-width="8" x1="148" y1="94" x2="148" y2="94"/><line class="node" stroke="white" stroke-width="4" x1="148" y1="94" x2="148" y2="94"/><text x="152" y="90" stroke="white" stroke-width="2">4  createTerminal</text><text x="152" y="90">4  createTerminal</text><line class="node" stroke="black" stroke-width="8" x1="148" y1="116" x2="148" y2="116"/><line class="node" stroke="white" stroke-width="4" x1="148" y1="116" x2="148" y2="116"/><text x="152" y="112" stroke="white" stroke-width="2">6  createTerminalScreen</text><text x="152" y="112">6  createTerminalScreen</text><line class="node" stroke="black" stroke-width="8" x1="148" y1="138" x2="148" y2="138"/><line class="node" stroke="white" stroke-width="4" x1="148" y1="138" x2="148" y2="138"/><text x="152" y="134" stroke="white" stroke-width="2">8  createWikiRepository</text><text x="152" y="134">8  createWikiRepository</text><line class="node" stroke="black" stroke-width="8" x1="148" y1="160" x2="148" y2="160"/><line class="node" stroke="white" stroke-width="4" x1="148" y1="160" x2="148" y2="160"/><text x="152" y="156" stroke="white" stroke-width="2">10  createViewModelFactory</text><text x="152" y="156">10  createViewModelFactory</text><line class="node" stroke="black" stroke-width="8" x1="148" y1="182" x2="148" y2="182"/><line class="node" stroke="white" stroke-width="4" x1="148" y1="182" x2="148" y2="182"/><text x="152" y="178" stroke="white" stroke-width="2">12  createTerminalAppScreen</text><text x="152" y="178">12  createTerminalAppScreen</text><line class="node" stroke="black" stroke-width="8" x1="148" y1="204" x2="148" y2="204"/><line class="node" stroke="white" stroke-width="4" x1="148" y1="204" x2="148" y2="204"/><text x="152" y="200" stroke="white" stroke-width="2">14  launch command server</text><text x="152" y="200">14  launch command server</text><line class="node" stroke="black" stroke-width="8" x1="148" y1="226" x2="148" y2="230"/><line class="node" stroke="white" stroke-width="4" x1="148" y1="226" x2="148" y2="230"/><text x="152" y="222" stroke="white" stroke-width="2">16  run and wait</text><text x="152" y="222">16  run and wait</text><line class="node" stroke="black" stroke-width="8" x1="148" y1="252" x2="148" y2="252"/><line class="node" stroke="white" stroke-width="4" x1="148" y1="252" x2="148" y2="252"/><text x="152" y="248" stroke="white" stroke-width="2">22  selectables flow</text><text x="152" y="248">22  selectables flow</text><line class="node" stroke="black" stroke-width="8" x1="148" y1="274" x2="148" y2="274"/><line class="node" stroke="white" stroke-width="4" x1="148" y1="274" x2="148" y2="274"/><text x="152" y="270" stroke="white" stroke-width="2">28  start processing keystrokes</text><text x="152" y="270">28  start processing keystrokes</text><line class="node" stroke="black" stroke-width="8" x1="148" y1="296" x2="148" y2="296"/><line class="node" stroke="white" stroke-width="4" x1="148" y1="296" x2="148" y2="296"/><text x="152" y="292" stroke="white" stroke-width="2">43  select</text><text x="152" y="292">43  select</text><line class="node" stroke="black" stroke-width="8" x1="148" y1="318" x2="148" y2="318"/><line class="node" stroke="white" stroke-width="4" x1="148" y1="318" x2="148" y2="318"/><text x="152" y="314" stroke="white" stroke-width="2">120  select</text><text x="152" y="314">120  select</text><line class="node" stroke="black" stroke-width="8" x1="260" y1="252" x2="260" y2="252"/><line class="node" stroke="white" stroke-width="4" x1="260" y1="252" x2="260" y2="252"/><text x="264" y="248" stroke="white" stroke-width="2">17  </text><text x="264" y="248">17  </text><line class="node" stroke="black" stroke-width="8" x1="260" y1="274" x2="260" y2="274"/><line class="node" stroke="white" stroke-width="4" x1="260" y1="274" x2="260" y2="274"/><text x="264" y="270" stroke="white" stroke-width="2">19  provide view model</text><text x="264" y="270">19  provide view model</text><line class="node" stroke="black" stroke-width="8" x1="260" y1="296" x2="260" y2="296"/><line class="node" stroke="white" stroke-width="4" x1="260" y1="296" x2="260" y2="296"/><text x="264" y="292" stroke="white" stroke-width="2">45  update screen</text><text x="264" y="292">45  update screen</text><line class="node" stroke="black" stroke-width="8" x1="260" y1="318" x2="260" y2="326"/><line class="node" stroke="white" stroke-width="4" x1="260" y1="318" x2="260" y2="326"/><text x="264" y="314" stroke="white" stroke-width="2">46  process keystroke</text><text x="264" y="314">46  process keystroke</text><line class="node" stroke="black" stroke-width="8" x1="260" y1="348" x2="260" y2="348"/><line class="node" stroke="white" stroke-width="4" x1="260" y1="348" x2="260" y2="348"/><text x="264" y="344" stroke="white" stroke-width="2">56  update screen</text><text x="264" y="344">56  update screen</text><line class="node" stroke="black" stroke-width="8" x1="260" y1="370" x2="260" y2="378"/><line class="node" stroke="white" stroke-width="4" x1="260" y1="370" x2="260" y2="378"/><text x="264" y="366" stroke="white" stroke-width="2">57  process keystroke</text><text x="264" y="366">57  process keystroke</text><line class="node" stroke="black" stroke-width="8" x1="260" y1="400" x2="260" y2="400"/><line class="node" stroke="white" stroke-width="4" x1="260" y1="400" x2="260" y2="400"/><text x="264" y="396" stroke="white" stroke-width="2">66  update screen</text><text x="264" y="396">66  update screen</text><line class="node" stroke="black" stroke-width="8" x1="260" y1="422" x2="260" y2="430"/><line class="node" stroke="white" stroke-width="4" x1="260" y1="422" x2="260" y2="430"/><text x="264" y="418" stroke="white" stroke-width="2">67  process keystroke</text><text x="264" y="418">67  process keystroke</text><line class="node" stroke="black" stroke-width="8" x1="260" y1="452" x2="260" y2="452"/><line class="node" stroke="white" stroke-width="4" x1="260" y1="452" x2="260" y2="452"/><text x="264" y="448" stroke="white" stroke-width="2">76  update screen</text><text x="264" y="448">76  update screen</text><line class="node" stroke="black" stroke-width="8" x1="260" y1="474" x2="260" y2="482"/><line class="node" stroke="white" stroke-width="4" x1="260" y1="474" x2="260" y2="482"/><text x="264" y="470" stroke="white" stroke-width="2">77  process keystroke</text><text x="264" y="470">77  process keystroke</text><line class="node" stroke="black" stroke-width="8" x1="260" y1="504" x2="260" y2="504"/><line class="node" stroke="white" stroke-width="4" x1="260" y1="504" x2="260" y2="504"/><text x="264" y="500" stroke="white" stroke-width="2">86  update screen</text><text x="264" y="500">86  update screen</text><line class="node" stroke="black" stroke-width="8" x1="260" y1="526" x2="260" y2="534"/><line class="node" stroke="white" stroke-width="4" x1="260" y1="526" x2="260" y2="534"/><text x="264" y="522" stroke="white" stroke-width="2">87  process keystroke</text><text x="264" y="522">87  process keystroke</text><line class="node" stroke="black" stroke-width="8" x1="260" y1="556" x2="260" y2="556"/><line class="node" stroke="white" stroke-width="4" x1="260" y1="556" x2="260" y2="556"/><text x="264" y="552" stroke="white" stroke-width="2">96  update screen</text><text x="264" y="552">96  update screen</text><line class="node" stroke="black" stroke-width="8" x1="260" y1="578" x2="260" y2="586"/><line class="node" stroke="white" stroke-width="4" x1="260" y1="578" x2="260" y2="586"/><text x="264" y="574" stroke="white" stroke-width="2">97  process keystroke</text><text x="264" y="574">97  process keystroke</text><line class="node" stroke="black" stroke-width="8" x1="260" y1="608" x2="260" y2="608"/><line class="node" stroke="white" stroke-width="4" x1="260" y1="608" x2="260" y2="608"/><text x="264" y="604" stroke="white" stroke-width="2">110  update screen</text><text x="264" y="604">110  update screen</text><line class="node" stroke="black" stroke-width="8" x1="260" y1="630" x2="260" y2="630"/><line class="node" stroke="white" stroke-width="4" x1="260" y1="630" x2="260" y2="630"/><text x="264" y="626" stroke="white" stroke-width="2">111  update screen</text><text x="264" y="626">111  update screen</text><line class="node" stroke="black" stroke-width="8" x1="260" y1="652" x2="260" y2="652"/><line class="node" stroke="white" stroke-width="4" x1="260" y1="652" x2="260" y2="652"/><text x="264" y="648" stroke="white" stroke-width="2">114  update screen</text><text x="264" y="648">114  update screen</text><line class="node" stroke="black" stroke-width="8" x1="260" y1="674" x2="260" y2="674"/><line class="node" stroke="white" stroke-width="4" x1="260" y1="674" x2="260" y2="674"/><text x="264" y="670" stroke="white" stroke-width="2">117  update screen</text><text x="264" y="670">117  update screen</text><line class="node" stroke="black" stroke-width="8" x1="260" y1="696" x2="260" y2="696"/><line class="node" stroke="white" stroke-width="4" x1="260" y1="696" x2="260" y2="696"/><text x="264" y="692" stroke="white" stroke-width="2">122  update screen</text><text x="264" y="692">122  update screen</text><line class="node" stroke="black" stroke-width="8" x1="512" y1="626" x2="512" y2="626"/><line class="node" stroke="white" stroke-width="4" x1="512" y1="626" x2="512" y2="626"/><text x="516" y="622" stroke="white" stroke-width="2">30  presentation state flow</text><text x="516" y="622">30  presentation state flow</text><line class="node" stroke="black" stroke-width="8" x1="512" y1="648" x2="512" y2="648"/><line class="node" stroke="white" stroke-width="4" x1="512" y1="648" x2="512" y2="648"/><text x="516" y="644" stroke="white" stroke-width="2">48  findintent</text><text x="516" y="644">48  findintent</text><line class="node" stroke="black" stroke-width="8" x1="512" y1="670" x2="512" y2="670"/><line class="node" stroke="white" stroke-width="4" x1="512" y1="670" x2="512" y2="670"/><text x="516" y="666" stroke="white" stroke-width="2">50  process intent</text><text x="516" y="666">50  process intent</text><line class="node" stroke="black" stroke-width="8" x1="512" y1="692" x2="512" y2="692"/><line class="node" stroke="white" stroke-width="4" x1="512" y1="692" x2="512" y2="692"/><text x="516" y="688" stroke="white" stroke-width="2">59  findintent</text><text x="516" y="688">59  findintent</text><line class="node" stroke="black" stroke-width="8" x1="512" y1="714" x2="512" y2="714"/><line class="node" stroke="white" stroke-width="4" x1="512" y1="714" x2="512" y2="714"/><text x="516" y="710" stroke="white" stroke-width="2">61  process intent</text><text x="516" y="710">61  process intent</text><line class="node" stroke="black" stroke-width="8" x1="512" y1="736" x2="512" y2="736"/><line class="node" stroke="white" stroke-width="4" x1="512" y1="736" x2="512" y2="736"/><text x="516" y="732" stroke="white" stroke-width="2">69  findintent</text><text x="516" y="732">69  findintent</text><line class="node" stroke="black" stroke-width="8" x1="512" y1="758" x2="512" y2="758"/><line class="node" stroke="white" stroke-width="4" x1="512" y1="758" x2="512" y2="758"/><text x="516" y="754" stroke="white" stroke-width="2">71  process intent</text><text x="516" y="754">71  process intent</text><line class="node" stroke="black" stroke-width="8" x1="512" y1="780" x2="512" y2="780"/><line class="node" stroke="white" stroke-width="4" x1="512" y1="780" x2="512" y2="780"/><text x="516" y="776" stroke="white" stroke-width="2">79  findintent</text><text x="516" y="776">79  findintent</text><line class="node" stroke="black" stroke-width="8" x1="512" y1="802" x2="512" y2="802"/><line class="node" stroke="white" stroke-width="4" x1="512" y1="802" x2="512" y2="802"/><text x="516" y="798" stroke="white" stroke-width="2">81  process intent</text><text x="516" y="798">81  process intent</text><line class="node" stroke="black" stroke-width="8" x1="512" y1="824" x2="512" y2="824"/><line class="node" stroke="white" stroke-width="4" x1="512" y1="824" x2="512" y2="824"/><text x="516" y="820" stroke="white" stroke-width="2">89  findintent</text><text x="516" y="820">89  findintent</text><line class="node" stroke="black" stroke-width="8" x1="512" y1="846" x2="512" y2="846"/><line class="node" stroke="white" stroke-width="4" x1="512" y1="846" x2="512" y2="846"/><text x="516" y="842" stroke="white" stroke-width="2">91  process intent</text><text x="516" y="842">91  process intent</text><line class="node" stroke="black" stroke-width="8" x1="512" y1="868" x2="512" y2="868"/><line class="node" stroke="white" stroke-width="4" x1="512" y1="868" x2="512" y2="868"/><text x="516" y="864" stroke="white" stroke-width="2">99  findintent</text><text x="516" y="864">99  findintent</text><line class="node" stroke="black" stroke-width="8" x1="512" y1="890" x2="512" y2="890"/><line class="node" stroke="white" stroke-width="4" x1="512" y1="890" x2="512" y2="890"/><text x="516" y="886" stroke="white" stroke-width="2">101  process intent</text><text x="516" y="886">101  process intent</text><line class="node" stroke="black" stroke-width="8" x1="680" y1="790" x2="680" y2="802"/><line class="node" stroke="white" stroke-width="4" x1="680" y1="790" x2="680" y2="802"/><text x="684" y="786" stroke="white" stroke-width="2">32  presentation state flow</text><text x="684" y="786">32  presentation state flow</text><line class="node" stroke="black" stroke-width="8" x1="680" y1="824" x2="680" y2="824"/><line class="node" stroke="white" stroke-width="4" x1="680" y1="824" x2="680" y2="824"/><text x="684" y="820" stroke="white" stroke-width="2">51  edit query</text><text x="684" y="820">51  edit query</text><line class="node" stroke="black" stroke-width="8" x1="680" y1="846" x2="680" y2="846"/><line class="node" stroke="white" stroke-width="4" x1="680" y1="846" x2="680" y2="846"/><text x="684" y="842" stroke="white" stroke-width="2">62  edit query</text><text x="684" y="842">62  edit query</text><line class="node" stroke="black" stroke-width="8" x1="680" y1="868" x2="680" y2="868"/><line class="node" stroke="white" stroke-width="4" x1="680" y1="868" x2="680" y2="868"/><text x="684" y="864" stroke="white" stroke-width="2">72  edit query</text><text x="684" y="864">72  edit query</text><line class="node" stroke="black" stroke-width="8" x1="680" y1="890" x2="680" y2="890"/><line class="node" stroke="white" stroke-width="4" x1="680" y1="890" x2="680" y2="890"/><text x="684" y="886" stroke="white" stroke-width="2">82  edit query</text><text x="684" y="886">82  edit query</text><line class="node" stroke="black" stroke-width="8" x1="680" y1="912" x2="680" y2="912"/><line class="node" stroke="white" stroke-width="4" x1="680" y1="912" x2="680" y2="912"/><text x="684" y="908" stroke="white" stroke-width="2">92  edit query</text><text x="684" y="908">92  edit query</text><line class="node" stroke="black" stroke-width="8" x1="680" y1="934" x2="680" y2="942"/><line class="node" stroke="white" stroke-width="4" x1="680" y1="934" x2="680" y2="942"/><text x="684" y="930" stroke="white" stroke-width="2">102  navigate to query</text><text x="684" y="930">102  navigate to query</text><line class="node" stroke="black" stroke-width="8" x1="890" y1="934" x2="890" y2="938"/><line class="node" stroke="white" stroke-width="4" x1="890" y1="934" x2="890" y2="938"/><text x="894" y="930" stroke="white" stroke-width="2">26  loading status flow</text><text x="894" y="930">26  loading status flow</text><line class="node" stroke="black" stroke-width="8" x1="890" y1="960" x2="890" y2="960"/><line class="node" stroke="white" stroke-width="4" x1="890" y1="960" x2="890" y2="960"/><text x="894" y="956" stroke="white" stroke-width="2">37  selection flow</text><text x="894" y="956">37  selection flow</text><line class="node" stroke="black" stroke-width="8" x1="890" y1="982" x2="890" y2="982"/><line class="node" stroke="white" stroke-width="4" x1="890" y1="982" x2="890" y2="982"/><text x="894" y="978" stroke="white" stroke-width="2">39  query flow</text><text x="894" y="978">39  query flow</text><line class="node" stroke="black" stroke-width="8" x1="890" y1="1004" x2="890" y2="1004"/><line class="node" stroke="white" stroke-width="4" x1="890" y1="1004" x2="890" y2="1004"/><text x="894" y="1000" stroke="white" stroke-width="2">53  edit query command</text><text x="894" y="1000">53  edit query command</text><line class="node" stroke="black" stroke-width="8" x1="890" y1="1026" x2="890" y2="1026"/><line class="node" stroke="white" stroke-width="4" x1="890" y1="1026" x2="890" y2="1026"/><text x="894" y="1022" stroke="white" stroke-width="2">63  edit query command</text><text x="894" y="1022">63  edit query command</text><line class="node" stroke="black" stroke-width="8" x1="890" y1="1048" x2="890" y2="1048"/><line class="node" stroke="white" stroke-width="4" x1="890" y1="1048" x2="890" y2="1048"/><text x="894" y="1044" stroke="white" stroke-width="2">73  edit query command</text><text x="894" y="1044">73  edit query command</text><line class="node" stroke="black" stroke-width="8" x1="890" y1="1070" x2="890" y2="1070"/><line class="node" stroke="white" stroke-width="4" x1="890" y1="1070" x2="890" y2="1070"/><text x="894" y="1066" stroke="white" stroke-width="2">83  edit query command</text><text x="894" y="1066">83  edit query command</text><line class="node" stroke="black" stroke-width="8" x1="890" y1="1092" x2="890" y2="1092"/><line class="node" stroke="white" stroke-width="4" x1="890" y1="1092" x2="890" y2="1092"/><text x="894" y="1088" stroke="white" stroke-width="2">93  edit query command</text><text x="894" y="1088">93  edit query command</text><line class="node" stroke="black" stroke-width="8" x1="890" y1="1114" x2="890" y2="1114"/><line class="node" stroke="white" stroke-width="4" x1="890" y1="1114" x2="890" y2="1114"/><text x="894" y="1110" stroke="white" stroke-width="2">104  select link</text><text x="894" y="1110">104  select link</text><line class="node" stroke="black" stroke-width="8" x1="890" y1="1136" x2="890" y2="1136"/><line class="node" stroke="white" stroke-width="4" x1="890" y1="1136" x2="890" y2="1136"/><text x="894" y="1132" stroke="white" stroke-width="2">105  edit query command</text><text x="894" y="1132">105  edit query command</text><line class="node" stroke="black" stroke-width="8" x1="988" y1="982" x2="988" y2="982"/><line class="node" stroke="white" stroke-width="4" x1="988" y1="982" x2="988" y2="982"/><text x="992" y="978" stroke="white" stroke-width="2">34  path flow command</text><text x="992" y="978">34  path flow command</text><line class="node" stroke="black" stroke-width="8" x1="988" y1="1004" x2="988" y2="1004"/><line class="node" stroke="white" stroke-width="4" x1="988" y1="1004" x2="988" y2="1004"/><text x="992" y="1000" stroke="white" stroke-width="2">106  load article flow</text><text x="992" y="1000">106  load article flow</text></svg>